<?xml version="1.0" encoding="UTF-8" standalone="no"?><!-- Created with Inkscape (http://www.inkscape.org/) -->

<svg xmlns:dc="http://purl.org/dc/elements/1.1/" xmlns:cc="http://creativecommons.org/ns#"
        xmlns:rdf="http://www.w3.org/1999/02/22-rdf-syntax-ns#"
        xmlns:svg="http://www.w3.org/2000/svg" xmlns="http://www.w3.org/2000/svg"
        xmlns:sodipodi="http://sodipodi.sourceforge.net/DTD/sodipodi-0.dtd"
        xmlns:inkscape="http://www.inkscape.org/namespaces/inkscape" width="24" height="24"
        id="svg4682" version="1.1" inkscape:version="0.92.4 (5da689c313, 2019-01-14)"
        sodipodi:docname="ic_cone_w.svg"
        inkscape:export-filename="/home/corbax/Dev/android/Icons/Test 1/ic_play_normal.png"
        inkscape:export-xdpi="90" inkscape:export-ydpi="90">
    <defs id="defs4684" />
    <sodipodi:namedview id="base" pagecolor="#ffffff" bordercolor="#666666" borderopacity="1.0"
            inkscape:pageopacity="0.0" inkscape:pageshadow="2" inkscape:zoom="31.678384"
            inkscape:cx="11.956197" inkscape:cy="12.574776" inkscape:document-units="px"
            inkscape:current-layer="layer1" showgrid="true" inkscape:window-width="1920"
            inkscape:window-height="1043" inkscape:window-x="1920" inkscape:window-y="0"
            inkscape:window-maximized="1">
        <inkscape:grid type="xygrid" id="grid3002" />
    </sodipodi:namedview>
    <metadata id="metadata4687">
        <rdf:RDF>
            <cc:Work rdf:about="">
                <dc:format>image/svg+xml</dc:format>
                <dc:type rdf:resource="http://purl.org/dc/dcmitype/StillImage" />
                <dc:title></dc:title>
            </cc:Work>
        </rdf:RDF>
    </metadata>
    <g inkscape:label="Layer 1" inkscape:groupmode="layer" id="layer1"
            transform="translate(0,-1028.3622)">
    <path
       d="m 12.933149,1039.978 3.599462,-2.9557 -11.6261305,-5.3658 c -0.770532,-0.3419 -1.492371,-0.3898 -2.12535,-0.016 z m 4.212966,3.4606 3.741879,-1.7283 c 0.730362,-0.3358 1.130844,-0.8116 1.130844,-1.3395 0,-0.5267 -0.400482,-1.0036 -1.129624,-1.3394 l -3.387657,-1.5623 -3.813702,3.1306 z M 2.1554545,1032.3672 c -0.077905,0.1969 -0.121726,0.4168 -0.121726,0.6577 v 14.6989 c 0,0.3809 0.102249,0.7088 0.287274,0.9696 l 9.8562215,-8.0946 z m 10.7776945,8.8513 -9.8014465,8.0497 c 0.187459,0.059 0.389526,0.09 0.602548,0.09 0.379787,0 0.775399,-0.092 1.178316,-0.2758 l 11.2658195,-5.1949 z"
       id="path1"
       style="fill:#fafafa;fill-opacity:1;fill-rule:evenodd;stroke-width:1.64449;paint-order:stroke fill markers"
       sodipodi:nodetypes="cccccccscccccsscccccsccc" />
    </g>
</svg>
